<svg viewBox="0 0 161.47 152.09" xmlns="http://www.w3.org/2000/svg" data-name="most-people.com">
    <path
        d="M37.26 111.53c24.16 28.46 52.28 34.39 86.19 15.21l22.81 25.35 15.21-15.21-22.81-22.79c12.1-16.28 17.56-42 10.1-68.46C138.07 18.41 121.95 1.69 98.06 0c27.54 28.6 38.22 63.3 20.28 96.32l-63.37-65.9L80.31 8.98l-38-9L1.76 40.56l22.81 22.81 17.76-17.74L103.17 109a37 37 0 0 1-15.2 7.46c-22.75 5-49.7-20.16-50.71-20.14-.81 0-32.95 30.42-32.95 30.42-5.18 4.28-5.24 7.69-2.53 10.63l10.13 7.12c4 1 7.41-.47 10.14-5.07Z" />
</svg>