<svg viewBox="0 0 256 256" xmlns="http://www.w3.org/2000/svg" data-name="most-people.com">
    <path fill="#e30002" d="M0 0h256v256H0z" />
    <path fill="#fff"
        d="m211.27 108.3-42 41 10 58-51-27.43-51.56 27.43 8.56-57-40.54-41 56.54-8 26.23-52.6 25.77 52.6 58 7z" />
    <path
        d="M110.85 152c9.53 11.23 20.62 13.57 34 6l9 10 6-6-9-9c4.77-6.41 6.93-16.55 4-27-4.22-10.74-10.57-17.33-20-18 10.86 11.28 15.08 25 8 38l-25-26 10-8.46-15-3.54-16 16 9 9 7-7 24 25a14.64 14.64 0 0 1-6 2.95c-9 2-19.6-8-20-7.95s-13 12-13 12c-2 1.69-2.07 3-1 4.19l4 2.81c1.57.38 2.92-.18 4-2Z" />
</svg>